<svg width="50" height="51" viewBox="0 0 50 51" fill="none" xmlns="http://www.w3.org/2000/svg">
<path d="M40.4375 15.9378L30.375 5.87533C29.6042 5.10449 28.5417 4.66699 27.4375 4.66699H12.5C10.2083 4.66699 8.35416 6.54199 8.35416 8.83366L8.33333 42.167C8.33333 44.4587 10.1875 46.3337 12.4792 46.3337H37.5C39.7917 46.3337 41.6667 44.4587 41.6667 42.167V18.8962C41.6667 17.792 41.2292 16.7295 40.4375 15.9378ZM30.8333 31.7503H27.0833V38.0003C27.0833 39.1462 26.1458 40.0837 25 40.0837C23.8542 40.0837 22.9167 39.1462 22.9167 38.0003V31.7503H19.1875C18.25 31.7503 17.7917 30.6253 18.4583 29.9795L24.2917 24.167C24.7083 23.7712 25.3542 23.7712 25.7708 24.167L31.5833 29.9795C32.2083 30.6253 31.75 31.7503 30.8333 31.7503ZM29.1667 19.2503C28.0208 19.2503 27.0833 18.3128 27.0833 17.167V7.79199L38.5417 19.2503H29.1667Z" fill="#6F0FBA"/>
</svg>
