<svg width="44" height="44" viewBox="0 0 44 44" fill="none" xmlns="http://www.w3.org/2000/svg">
<rect width="44" height="44" rx="22" fill="#8F0FBA"/>
<path d="M20.8209 22.525C20.6009 22.515 20.3809 22.505 20.1509 22.505C17.7309 22.505 15.4709 23.175 13.5409 24.325C12.6609 24.845 12.1509 25.825 12.1509 26.855V28.505C12.1509 29.055 12.6009 29.505 13.1509 29.505H21.4109C20.6209 28.375 20.1509 26.995 20.1509 25.505C20.1509 24.435 20.4009 23.435 20.8209 22.525Z" fill="white"/>
<path d="M20.1509 21.505C22.36 21.505 24.1509 19.7141 24.1509 17.505C24.1509 15.2959 22.36 13.505 20.1509 13.505C17.9417 13.505 16.1509 15.2959 16.1509 17.505C16.1509 19.7141 17.9417 21.505 20.1509 21.505Z" fill="white"/>
<path d="M30.9009 25.505C30.9009 25.285 30.8709 25.085 30.8409 24.875L31.6809 24.145C31.8609 23.985 31.9009 23.725 31.7809 23.515L31.1909 22.495C31.0709 22.285 30.8209 22.195 30.6009 22.275L29.5409 22.635C29.2209 22.365 28.8609 22.155 28.4609 22.005L28.2409 20.915C28.1909 20.685 27.9909 20.515 27.7509 20.515H26.5709C26.3309 20.515 26.1309 20.685 26.0809 20.915L25.8609 22.005C25.4609 22.155 25.1009 22.365 24.7809 22.635L23.7209 22.275C23.4909 22.195 23.2509 22.295 23.1309 22.495L22.5409 23.515C22.4209 23.725 22.4609 23.985 22.6409 24.145L23.4809 24.875C23.4509 25.085 23.4209 25.285 23.4209 25.505C23.4209 25.725 23.4509 25.925 23.4809 26.135L22.6409 26.865C22.4609 27.025 22.4209 27.285 22.5409 27.495L23.1309 28.515C23.2509 28.725 23.5009 28.815 23.7209 28.735L24.7809 28.375C25.1009 28.645 25.4609 28.855 25.8609 29.005L26.0809 30.095C26.1309 30.325 26.3309 30.495 26.5709 30.495H27.7509C27.9909 30.495 28.1909 30.325 28.2409 30.095L28.4609 29.005C28.8609 28.855 29.2209 28.645 29.5409 28.375L30.6009 28.735C30.8309 28.815 31.0709 28.715 31.1909 28.515L31.7809 27.495C31.9009 27.285 31.8609 27.025 31.6809 26.865L30.8409 26.135C30.8709 25.925 30.9009 25.725 30.9009 25.505ZM27.1509 27.505C26.0509 27.505 25.1509 26.605 25.1509 25.505C25.1509 24.405 26.0509 23.505 27.1509 23.505C28.2509 23.505 29.1509 24.405 29.1509 25.505C29.1509 26.605 28.2509 27.505 27.1509 27.505Z" fill="white"/>
</svg>
