<svg width="53" height="27" viewBox="0 0 53 27" fill="none" xmlns="http://www.w3.org/2000/svg">
<path d="M5.08 17.224H9.976V21H0.6V0.296H5.08V17.224ZM23.492 9.288V17.096C23.492 19.912 22.1693 21.32 19.524 21.32H15.908C13.2627 21.32 11.94 19.912 11.94 17.096V9.288C11.94 6.472 13.2627 5.064 15.908 5.064H19.524C22.1693 5.064 23.492 6.472 23.492 9.288ZM19.204 17.992V8.36C19.204 8.18933 19.14 8.04 19.012 7.912C18.9053 7.784 18.7667 7.72 18.596 7.72H16.836C16.6653 7.72 16.516 7.784 16.388 7.912C16.2813 8.04 16.228 8.18933 16.228 8.36V17.992C16.228 18.1627 16.2813 18.312 16.388 18.44C16.516 18.568 16.6653 18.632 16.836 18.632H18.596C18.7667 18.632 18.9053 18.568 19.012 18.44C19.14 18.312 19.204 18.1627 19.204 17.992ZM37.9608 5.384V22.184C37.9608 25 36.6381 26.408 33.9928 26.408H30.7928C28.1474 26.408 26.8248 25 26.8248 22.184V21.672H30.6968V22.696C30.6968 22.8667 30.7501 23.016 30.8568 23.144C30.9848 23.272 31.1341 23.336 31.3048 23.336H33.0648C33.2354 23.336 33.3741 23.272 33.4808 23.144C33.6088 23.016 33.6728 22.8667 33.6728 22.696V19.496C33.0114 20.008 32.1368 20.264 31.0488 20.264H30.3768C27.7314 20.264 26.4088 18.856 26.4088 16.04V9.288C26.4088 6.472 27.7314 5.064 30.3768 5.064H31.0488C32.5848 5.064 33.6834 5.55467 34.3448 6.536V5.384H37.9608ZM33.6728 16.552V8.776C33.6728 8.60533 33.6088 8.456 33.4808 8.328C33.3741 8.2 33.2354 8.136 33.0648 8.136H31.3048C31.1341 8.136 30.9848 8.2 30.8568 8.328C30.7501 8.456 30.6968 8.60533 30.6968 8.776V16.552C30.6968 16.7227 30.7501 16.872 30.8568 17C30.9848 17.128 31.1341 17.192 31.3048 17.192H33.0648C33.2354 17.192 33.3741 17.128 33.4808 17C33.6088 16.872 33.6728 16.7227 33.6728 16.552ZM52.4295 9.288V17.096C52.4295 19.912 51.1068 21.32 48.4615 21.32H44.8455C42.2002 21.32 40.8775 19.912 40.8775 17.096V9.288C40.8775 6.472 42.2002 5.064 44.8455 5.064H48.4615C51.1068 5.064 52.4295 6.472 52.4295 9.288ZM48.1415 17.992V8.36C48.1415 8.18933 48.0775 8.04 47.9495 7.912C47.8428 7.784 47.7042 7.72 47.5335 7.72H45.7735C45.6028 7.72 45.4535 7.784 45.3255 7.912C45.2188 8.04 45.1655 8.18933 45.1655 8.36V17.992C45.1655 18.1627 45.2188 18.312 45.3255 18.44C45.4535 18.568 45.6028 18.632 45.7735 18.632H47.5335C47.7042 18.632 47.8428 18.568 47.9495 18.44C48.0775 18.312 48.1415 18.1627 48.1415 17.992Z" fill="#6F0FBA"/>
</svg>
